<svg version="1" xmlns="http://www.w3.org/2000/svg" width="933.333" height="933.333" viewBox="0 0 700.000000 700.000000"><path d="M171.9 44.7c-.8 1.5-4.7 8.6-8.8 15.8-4 7.1-8.4 15-9.8 17.5-1.4 2.5-7.6 13.5-13.8 24.5-6.2 11-12.1 21.6-13.2 23.5-1.1 1.9-6.2 10.9-11.3 20-5.1 9.1-10.2 18.1-11.3 20-1.1 1.9-9 16.1-17.7 31.5-8.7 15.4-18.3 32.5-21.4 38-3.1 5.5-6 10.7-6.5 11.5-.6.8-3.5 5.8-6.4 11-6.4 11.3-46.9 82.5-49.7 87.6-1.1 1.9-2 3.9-2 4.5 0 .6 1.7 4.1 3.9 7.7 2.1 3.7 4.9 8.7 6.3 11.2 1.4 2.5 12.8 22.5 25.3 44.5 28.2 49.5 37.9 66.6 41.5 73 1.5 2.7 3.7 6.7 4.9 8.7 5.3 9.4 14.1 25 17.3 30.8 1.4 2.5 6.3 11.2 11 19.5 4.7 8.2 10 17.7 11.8 21 1.8 3.3 7.9 14.1 13.5 24 12.7 22.4 13.6 24.1 22.6 40 4 7.1 8.3 14.8 9.6 17 1.3 2.2 3.1 5.5 4 7.2l1.7 3.3h351.1l10-17.7c5.5-9.7 11.2-19.7 12.7-22.2s3.1-5.3 3.5-6.1c.4-.8 5.9-10.7 12.4-22 16-28.2 36.9-64.9 38.9-68.5.9-1.7 5.7-10 10.5-18.5s9.6-16.9 10.5-18.5c.9-1.7 10.2-17.9 20.5-36 10.3-18.2 20.2-35.5 21.8-38.5 1.7-3 4.1-7.2 5.4-9.2 1.3-2.1 2.3-3.9 2.3-4.1 0-.2 2.3-4.4 5.1-9.3 6.1-10.4 7.5-12.9 11.8-20.8 1.8-3.2 4.6-8.1 6.2-10.8 1.6-2.7 2.9-5.3 2.9-5.8 0-.7-2.1-4.7-9.9-18.2-10.1-17.8-66.5-116.9-74.6-131.3-3.5-6.1-13.8-24.3-23-40.5-9.3-16.2-18.8-33-21.2-37.3-2.4-4.3-5.5-9.6-6.8-11.7-1.4-2.2-2.5-4.1-2.5-4.4 0-.2-4.2-7.8-9.4-16.8-8.3-14.6-10.9-19.2-16.5-29.1-.9-1.6-2.1-3.6-2.6-4.5-.6-.9-2.6-4.5-4.5-8l-3.5-6.2H173.3l-1.4 2.7z"/></svg>