<svg xmlns="http://www.w3.org/2000/svg" viewBox="0 0 732.7 236.4" preserveAspectRatio="xMinYMid"><style type="text/css">
  .st0{fill:#0E1E63;}
  .st1{fill:#00AAE5;}
</style><path class="st0" d="M191.1 222.3l11.2 0.6c5.1 0.3 7.6 1.4 7.6 4.4 0 3.4-3.7 5.3-11 5.3 -7.6 0-11.4-1.8-11.4-5.6C187.5 224.8 188.6 223.4 191.1 222.3M197.9 193.3c4.5 0 7.5 3.1 7.5 7.6 0 4.5-2.9 7.6-7.5 7.6 -4.6 0-7.5-3-7.5-7.5C190.4 196.3 193.4 193.3 197.9 193.3M189.8 209.6c-3.5 1.2-5.2 3.2-5.2 5.8 0 2.4 1.1 4.1 3.6 5.4 -3.6 1.1-5.6 3.6-5.6 6.8 0 5.5 5.4 8.8 15.7 8.8 11 0 16.7-3.6 16.7-9.5 0-5.1-3.8-7.9-11.1-8.3l-10.3-0.5c-2.8-0.1-4.3-1.4-4.3-3.5 0-1.4 1.2-2.6 3.5-3.2 1.6 0.6 3.2 0.9 5 0.9 8 0 12.9-4.6 12.9-11.1 0-2.7-1-5.3-3-7.8 0.4-2.6 2.1-3.9 5.1-3.9h1.7v-3.7c-0.8-0.1-1.5-0.1-2.1-0.1 -4.1 0-6.6 2-7.1 5.8 -2.3-1.2-4.7-1.8-7.3-1.8 -7.2 0-12.5 5.1-12.5 11.7C185.2 204.7 186.8 207.6 189.8 209.6"/><path class="st0" d="M229.6 220.5c-5.8 0-9.6-5-9.6-13.6 0-8.7 3.8-13.6 9.6-13.6 5.8 0 9.7 5 9.7 13.6C239.4 215.5 235.4 220.5 229.6 220.5M229.6 224.7c9 0 15.2-6.9 15.2-17.8 0-10.9-6.2-17.8-15.2-17.8 -8.9 0-15.1 6.9-15.1 17.8C214.6 217.8 220.7 224.7 229.6 224.7"/><polygon class="st0" points="257.1 223.8 262.6 223.8 274.4 190.1 269.9 190.1 260.3 218.9 250.7 190.1 245.7 190.1 "/><path class="st0" d="M304.4 214.8l-4.8-0.8c-1.7 4.2-5 6.6-9.2 6.6 -6.1 0-10-4.7-10-12.9v-0.2h24.5v-0.7c0-10.9-5.8-17.4-14.9-17.4 -8.9 0-15.1 7-15.1 17.8 0 11 6 17.8 15.1 17.8C297 224.7 302 221.3 304.4 214.8M280.4 203.7c0.9-6.7 4.3-10.3 9.8-10.3 5.4 0 8.9 3.7 9.2 10.3H280.4z"/><path class="st0" d="M311.3 223.8h5.1v-16.9c0-7.8 4.1-12.6 10.6-12.6h0.9v-5.1c-0.7-0.1-1.2-0.1-1.8-0.1 -4.7 0-7.8 2.8-9.8 8.5v-7.5h-4.8V223.8z"/><path class="st0" d="M332.2 223.8h4.9v-18.6c0-7 4.3-11.8 9.7-11.8 4.4 0 7 3.1 7 8.7v21.8h4.9V202.5c0-8.8-3.8-13.3-11-13.3 -4.7 0-8.1 2.3-10.9 7.2v-6.2h-4.6V223.8z"/><path class="st0" d="M388.5 196.7c-1.3-4.7-4.9-7.3-9.7-7.3 -4.2 0-7.5 2.3-10.2 7v-6.2h-4.6v33.7h4.9v-18.6c0-6.9 4.2-11.6 9.1-11.6 3.9 0 6.3 3 6.3 8.5v21.8h4.9v-18.6c0-6.9 4.2-11.6 9.1-11.6 3.9 0 6.3 3 6.3 8.5v21.8h4.9V202.5c0-8.6-3.7-13.1-10.3-13.1C394.8 189.4 391.4 191.7 388.5 196.7"/><path class="st0" d="M444 214.8l-4.8-0.8c-1.7 4.2-5 6.6-9.2 6.6 -6.1 0-10-4.7-10-12.9v-0.2h24.5v-0.7c0-10.9-5.8-17.4-14.9-17.4 -8.8 0-15.1 7-15.1 17.8 0 11 6 17.8 15.1 17.8C436.6 224.7 441.6 221.3 444 214.8M420 203.7c0.9-6.7 4.3-10.3 9.8-10.3 5.4 0 8.9 3.7 9.2 10.3H420z"/><path class="st0" d="M449.6 223.8h4.9v-18.6c0-7 4.3-11.8 9.7-11.8 4.4 0 7 3.1 7 8.7v21.8h4.9V202.5c0-8.8-3.8-13.3-11-13.3 -4.7 0-8.1 2.3-10.9 7.2v-6.2h-4.6V223.8z"/><path class="st0" d="M486.7 211.3c0 4.3 0 7.5 1.4 9.5 1.9 2.8 4.7 4 8.7 4 1.4 0 2.8-0.2 4.2-0.5v-4.2c-1.2 0.3-2.4 0.4-3.5 0.4 -5.1 0-5.7-2.7-5.7-9v-17.6h8v-3.7h-8v-8.5l-5.1 0.5v8h-5.9v3.7h5.9V211.3z"/><path class="st0" d="M520 215c1.6 6.1 6.7 9.7 14.1 9.7 7.7 0 12.9-4.5 12.9-10.5 0-5.2-3.3-7.9-10.4-9.6 -6.5-1.6-10.3-1.7-10.3-5.9 0-3.2 2.6-5.3 6.8-5.3 4.1 0 6.7 1.8 7.7 5.3l4.7-1c-1.6-5.5-6-8.5-12.2-8.5 -7.3 0-12.1 4.4-12.1 10.1 0 5.6 3.4 7.8 10.8 9.6 6.2 1.5 9.7 1.9 9.7 6 0 3.3-2.9 5.7-7.6 5.7 -4.7 0-8.2-2.4-9.6-6.5L520 215z"/><path class="st0" d="M579.2 214.8l-4.8-0.8c-1.7 4.2-5.1 6.6-9.2 6.6 -6.1 0-10-4.7-10-12.9v-0.2h24.5v-0.7c0-10.9-5.8-17.4-14.9-17.4 -8.9 0-15.1 7-15.1 17.8 0 11 6 17.8 15.1 17.8C571.8 224.7 576.9 221.3 579.2 214.8M555.2 203.7c0.9-6.7 4.3-10.3 9.8-10.3 5.5 0 8.9 3.7 9.2 10.3H555.2z"/><path class="st0" d="M583.4 223.8h5.1v-16.9c0-7.8 4.1-12.6 10.6-12.6h0.9v-5.1c-0.7-0.1-1.2-0.1-1.8-0.1 -4.6 0-7.8 2.8-9.8 8.5v-7.5h-4.8V223.8z"/><polygon class="st0" points="613.1 223.8 618.7 223.8 630.5 190.1 625.9 190.1 616.3 218.9 606.7 190.1 601.7 190.1 "/><path class="st0" d="M633.6 223.8h5V190.1h-5V223.8zM633.6 183.3h5v-5h-5V183.3z"/><path class="st0" d="M665 201.9l4.7-0.7c-1.1-7.7-5.7-12-12.1-12 -8.9 0-15.1 7-15.1 17.8 0 11 5.8 17.8 14.3 17.8 6.8 0 11.6-4.2 12.9-11.7l-4.5-0.9c-1 5.3-4.1 8.3-8.2 8.3 -5.3 0-9-5-9-13.4 0-8.6 3.9-13.6 9.2-13.6C661.1 193.4 664.4 196.5 665 201.9"/><path class="st0" d="M702.6 214.8l-4.8-0.8c-1.7 4.2-5 6.6-9.2 6.6 -6.1 0-10-4.7-10-12.9v-0.2h24.5v-0.7c0-10.9-5.8-17.4-14.9-17.4 -8.8 0-15.1 7-15.1 17.8 0 11 6 17.8 15.1 17.8C695.2 224.7 700.2 221.3 702.6 214.8M678.6 203.7c0.9-6.7 4.3-10.3 9.8-10.3 5.4 0 8.9 3.7 9.2 10.3H678.6z"/><path class="st0" d="M705.7 215c1.6 6.1 6.7 9.7 14.1 9.7 7.7 0 12.9-4.5 12.9-10.5 0-5.2-3.3-7.9-10.4-9.6 -6.5-1.6-10.3-1.7-10.3-5.9 0-3.2 2.6-5.3 6.8-5.3 4.1 0 6.7 1.8 7.7 5.3l4.7-1c-1.6-5.5-6-8.5-12.2-8.5 -7.3 0-12.1 4.4-12.1 10.1 0 5.6 3.4 7.8 10.8 9.6 6.2 1.5 9.7 1.9 9.7 6 0 3.3-2.9 5.7-7.6 5.7 -4.7 0-8.2-2.4-9.6-6.5L705.7 215z"/><path class="st0" d="M0 49l38.4-2.3c1.6 7.2 2.7 15.7 3.5 25.4 5.2-8.4 11.3-14.7 18.3-18.9 7.1-4.2 15-6.3 23.9-6.3 7.7 0 14.1 1.5 19.2 4.6 5.2 3 9.3 7.7 12.5 14.2 3.1 6.5 4.7 13.8 4.7 21.8v56.2c0 4.2 1 7.2 2.8 9 1.9 1.7 5.1 2.6 9.5 2.6h3.8c3.6 0 6.3-0.9 7.9-2.6 1.7-1.8 2.6-4.4 2.6-7.8V72.2c0-4.6-1.3-8.1-3.9-10.4 -2.6-2.4-6.5-3.6-11.7-3.6h-9.5v-9.2l45.9-1.4v99.4c0 2.7 0.7 4.7 2 5.8 1.9 1.6 4.3 2.5 7.2 2.5h11.1v9.3h-47.1 -16.6H79.9v-9.2h5.8c5.4 0 9.2-0.9 11.4-2.6 2.1-1.7 3.2-4.3 3.2-7.8V95.5c0-10.8-1.6-18.7-4.9-23.9 -4.6-7.4-11.6-11.1-21-11.1 -9.3 0-17.1 3.7-23.3 11.2 -6.2 7.5-9.2 17.2-9.2 29.2v42.8c0 4.2 0.9 7.2 2.8 9 2 1.7 5.2 2.6 9.6 2.6h7.8v9.3H1.1v-9.2h8c4 0 7.1-0.8 9.1-2.5 2.1-1.6 3.2-3.7 3.2-6.2V72.1c0-4.9-1.4-8.7-4.1-11.2 -2.6-2.5-6.5-3.8-11.5-3.8H0V49z"/><path class="st0" d="M133.5 20.6c0-11.1 9-20.2 20.2-20.2 11.1 0 20.2 9 20.2 20.2 0 11.1-9 20.2-20.2 20.2C142.5 40.8 133.5 31.8 133.5 20.6"/><path class="st1" d="M256.1 133.5c-4.5 5.4-10.1 8.2-16.4 8.2 -13.2 0-18.1-11.2-18.1-34.6 0-24.2 5.2-35.6 18.8-35.6 5.8 0 10.6 3 15.8 8.9V133.5zM296.7 0h-40.6v61.8c-9.9-9.9-20.3-14.7-32.6-14.7 -25.9 0-44.7 23.3-44.7 60.5 0 37.2 17.9 59.6 43.9 59.6 11.7 0 22.7-4.7 33.5-14v11.5h40.5C296.6 160.9 296.7 0 296.7 0"/><rect x="303.8" y="48.6" class="st1" width="40.4" height="116"/><path class="st1" d="M351.6 164.6h40.6V87.9c6.9-5.4 20.4-10.5 41-2.9V46c-17.3 1.1-30.7 2.9-41 15.6v-13h-40.6V164.6z"/><path class="st1" d="M475.3 92.9c0.4-14.9 6.5-22.7 17.7-22.7 11.5 0 18.4 8.2 18.4 22.7H475.3zM551.1 136.5l-25.9-11.9c-5.8 11-14.3 16.2-25.9 16.2 -15.5 0-24.8-9.3-24.8-25.3v-0.6h77.5c0.2-2.4 0.2-4.5 0.2-6.7 0-38.9-23.1-62.2-59.2-62.2 -36.9 0-61.3 24.2-61.3 62 0 36.7 24 60.3 61.3 60.3C520.2 168.3 539.7 157.5 551.1 136.5"/><path class="st1" d="M639 121.4c-4.1 13.2-11.9 20.1-22 20.1 -14.7 0-19.4-11.7-19.4-35.8 0-22.5 4.3-32.8 17.5-32.8 8.2 0 12.3 5.4 14.3 16.9l36.3-2.8c-6.9-26.1-25.9-40.8-52.5-40.8 -34.1 0-58.1 24.6-58.1 61.8 0 37.4 23.1 60.3 57.9 60.3 27.9 0 47.7-15.1 55.1-41.2L639 121.4z"/><path class="st1" d="M730.6 164.4v-27.6c-3.9 0.9-7.3 1.3-10.1 1.3 -7.6 0-11-3.2-11-10.6V74.1h21.2V48.6h-21.2V7.6h-39.5l0 129.6c0 20.5 12.5 30.2 38.2 30.2C716.4 167.4 723.7 166.3 730.6 164.4"/><path class="st1" d="M303.8 20.6c0-11.1 9-20.2 20.2-20.2 11.1 0 20.2 9 20.2 20.2 0 11.1-9 20.2-20.2 20.2C312.8 40.8 303.8 31.8 303.8 20.6"/></svg>
