<svg viewBox="0 0 568.83 79.82" xmlns="http://www.w3.org/2000/svg"><path d="m100.45 111.11 3.62.19c1.65.09 2.45.45 2.45 1.42s-1.18 1.71-3.53 1.71-3.68-.59-3.68-1.82a1.59 1.59 0 0 1 1.14-1.5m2.2-9.37a2.31 2.31 0 0 1 2.43 2.45 2.43 2.43 0 1 1 -4.86 0 2.31 2.31 0 0 1 2.43-2.45m-2.65 5.26c-1.14.4-1.69 1-1.69 1.88a1.83 1.83 0 0 0 1.16 1.74 2.25 2.25 0 0 0 -1.8 2.19c0 1.76 1.74 2.84 5.06 2.84 3.53 0 5.39-1.17 5.39-3.07 0-1.63-1.23-2.56-3.6-2.68l-3.32-.17c-.91 0-1.39-.45-1.39-1.15 0-.46.38-.82 1.12-1a4.5 4.5 0 0 0 1.61.27c2.58 0 4.14-1.5 4.14-3.59a3.92 3.92 0 0 0 -1-2.52 1.43 1.43 0 0 1 1.63-1.27h.55v-1.2a6.22 6.22 0 0 0 -.68 0 2.08 2.08 0 0 0 -2.31 1.89 4.66 4.66 0 0 0 -2.34-.6 3.81 3.81 0 0 0 -4 3.79 3.2 3.2 0 0 0 1.47 2.65" fill="#0e1e63" transform="translate(-38.85 -36.84)"/><path d="m112.88 110.54c-1.86 0-3.1-1.61-3.1-4.38s1.22-4.38 3.1-4.38 3.13 1.61 3.13 4.38-1.26 4.38-3.13 4.38m0 1.35c2.9 0 4.91-2.24 4.91-5.73s-2-5.73-4.91-5.73-4.86 2.22-4.86 5.73 2 5.73 4.86 5.73" fill="#0e1e63" transform="translate(-38.85 -36.84)"/><path d="m82.89 74.75h1.78l3.8-10.87h-1.48l-3.08 9.29-3.09-9.29h-1.61z" fill="#0e1e63"/><path d="m137 108.68-1.54-.28a3.13 3.13 0 0 1 -3 2.12c-2 0-3.24-1.52-3.24-4.17v-.06h7.91v-.23c0-3.51-1.88-5.63-4.8-5.63s-4.87 2.26-4.87 5.73 2 5.73 4.87 5.73a4.62 4.62 0 0 0 4.65-3.21m-7.74-3.57c.28-2.16 1.4-3.33 3.17-3.33s2.88 1.21 3 3.33z" fill="#0e1e63" transform="translate(-38.85 -36.84)"/><path d="m139.2 111.6h1.63v-5.46c0-2.52 1.33-4.06 3.4-4.06h.28v-1.63c-.21 0-.4 0-.59 0-1.5 0-2.52.91-3.18 2.75v-2.43h-1.54z" fill="#0e1e63" transform="translate(-38.85 -36.84)"/><path d="m146 111.6h1.58v-6c0-2.26 1.4-3.81 3.14-3.81 1.41 0 2.24 1 2.24 2.79v7h1.56v-6.88c0-2.83-1.23-4.29-3.53-4.29a3.87 3.87 0 0 0 -3.51 2.31v-2h-1.48z" fill="#0e1e63" transform="translate(-38.85 -36.84)"/><path d="m164.11 102.84a3.06 3.06 0 0 0 -3.13-2.35 3.72 3.72 0 0 0 -3.28 2.24v-2h-1.48v10.87h1.59v-6c0-2.22 1.35-3.74 2.92-3.74 1.24 0 2 1 2 2.72v7h1.56v-6c0-2.22 1.36-3.74 2.92-3.74 1.25 0 2 1 2 2.72v7h1.57v-6.88c0-2.77-1.19-4.23-3.32-4.23-1.4 0-2.5.77-3.41 2.35" fill="#0e1e63" transform="translate(-38.85 -36.84)"/><path d="m182 108.68-1.54-.28a3.13 3.13 0 0 1 -3 2.12c-2 0-3.24-1.52-3.24-4.17v-.06h7.91v-.23c0-3.51-1.88-5.63-4.8-5.63s-4.87 2.26-4.87 5.73 1.95 5.73 4.87 5.73a4.62 4.62 0 0 0 4.65-3.21m-7.74-3.57c.28-2.16 1.4-3.33 3.17-3.33s2.88 1.21 3 3.33z" fill="#0e1e63" transform="translate(-38.85 -36.84)"/><path d="m183.8 111.6h1.59v-6c0-2.26 1.39-3.81 3.13-3.81 1.41 0 2.24 1 2.24 2.79v7h1.56v-6.88c0-2.83-1.22-4.29-3.53-4.29a3.87 3.87 0 0 0 -3.51 2.31v-2h-1.48z" fill="#0e1e63" transform="translate(-38.85 -36.84)"/><path d="m195.75 107.56c0 1.4 0 2.41.45 3a3 3 0 0 0 2.79 1.29 5.67 5.67 0 0 0 1.35-.17v-1.35a4.15 4.15 0 0 1 -1.12.13c-1.65 0-1.84-.87-1.84-2.9v-5.69h2.62v-1.18h-2.58v-2.69l-1.63.17v2.58h-1.9v1.18h1.9z" fill="#0e1e63" transform="translate(-38.85 -36.84)"/><path d="m206.5 108.76c.51 2 2.16 3.13 4.55 3.13s4.14-1.43 4.14-3.38c0-1.67-1.08-2.54-3.34-3.11-2.09-.53-3.32-.55-3.32-1.9 0-1 .83-1.72 2.2-1.72a2.36 2.36 0 0 1 2.5 1.72l1.5-.32a3.77 3.77 0 0 0 -3.94-2.75c-2.37 0-3.89 1.42-3.89 3.26s1.1 2.51 3.47 3.09c2 .48 3.13.61 3.13 1.94 0 1.06-.93 1.84-2.45 1.84a3 3 0 0 1 -3.09-2.09z" fill="#0e1e63" transform="translate(-38.85 -36.84)"/><path d="m225.58 108.68-1.58-.28a3.13 3.13 0 0 1 -3 2.12c-2 0-3.23-1.52-3.23-4.17v-.06h7.91v-.23c0-3.51-1.89-5.63-4.8-5.63s-4.87 2.26-4.87 5.73 1.95 5.73 4.87 5.73a4.62 4.62 0 0 0 4.65-3.21m-7.74-3.57c.27-2.16 1.39-3.33 3.17-3.33s2.88 1.21 3 3.33z" fill="#0e1e63" transform="translate(-38.85 -36.84)"/><path d="m226.93 111.6h1.63v-5.46c0-2.52 1.33-4.06 3.4-4.06h.27v-1.63c-.21 0-.4 0-.59 0-1.5 0-2.52.91-3.17 2.75v-2.43h-1.54z" fill="#0e1e63" transform="translate(-38.85 -36.84)"/><path d="m197.66 74.75h1.78l3.81-10.87h-1.49l-3.08 9.29-3.09-9.29h-1.61z" fill="#0e1e63"/><path d="m243.13 111.6h1.6v-10.87h-1.6zm0-13.07h1.6v-1.61h-1.6z" fill="#0e1e63" transform="translate(-38.85 -36.84)"/><path d="m253.25 104.53 1.52-.23c-.36-2.47-1.84-3.87-3.91-3.87-2.88 0-4.87 2.24-4.87 5.73s1.88 5.73 4.61 5.73c2.2 0 3.74-1.35 4.17-3.78l-1.46-.28c-.34 1.72-1.34 2.67-2.65 2.67-1.71 0-2.91-1.61-2.91-4.34s1.27-4.38 3-4.38c1.26 0 2.32 1 2.54 2.75" fill="#0e1e63" transform="translate(-38.85 -36.84)"/><path d="m265.35 108.68-1.54-.28a3.13 3.13 0 0 1 -3 2.12c-2 0-3.24-1.52-3.24-4.17v-.06h7.91v-.23c0-3.51-1.88-5.63-4.8-5.63s-4.87 2.26-4.87 5.73 1.95 5.73 4.87 5.73a4.62 4.62 0 0 0 4.65-3.21m-7.74-3.57c.28-2.16 1.4-3.33 3.17-3.33s2.88 1.21 3 3.33z" fill="#0e1e63" transform="translate(-38.85 -36.84)"/><path d="m266.36 108.76c.5 2 2.15 3.13 4.54 3.13s4.15-1.43 4.15-3.38c0-1.67-1.08-2.54-3.34-3.11-2.1-.53-3.32-.55-3.32-1.9 0-1 .82-1.72 2.2-1.72a2.35 2.35 0 0 1 2.49 1.72l1.5-.32a3.75 3.75 0 0 0 -3.93-2.75c-2.37 0-3.89 1.42-3.89 3.26s1.1 2.51 3.47 3.09c2 .48 3.13.61 3.13 1.94 0 1.06-.93 1.84-2.46 1.84a3.06 3.06 0 0 1 -3.09-2.09z" fill="#0e1e63" transform="translate(-38.85 -36.84)"/><path d="m38.85 55.25 12.37-.76a62.62 62.62 0 0 1 1.11 8.19 17.74 17.74 0 0 1 5.89-6.08 14.85 14.85 0 0 1 7.71-2 12 12 0 0 1 6.2 1.48 10 10 0 0 1 4 4.57 16.11 16.11 0 0 1 1.51 7v18.13a3.9 3.9 0 0 0 .91 2.91 4.54 4.54 0 0 0 3.06.83h1.22a3.41 3.41 0 0 0 2.55-.83 3.49 3.49 0 0 0 .83-2.51v-23.45a4.22 4.22 0 0 0 -1.21-3.35 5.51 5.51 0 0 0 -3.78-1.15h-3.1v-3l14.79-.44v32.07a2.36 2.36 0 0 0 .64 1.87 3.39 3.39 0 0 0 2.31.79h3.58v3h-34.82v-3h1.87a6 6 0 0 0 3.65-.83 3 3 0 0 0 1-2.51v-15.94q0-5.2-1.59-7.71a7.42 7.42 0 0 0 -6.72-3.53 9.36 9.36 0 0 0 -7.51 3.62 14.31 14.31 0 0 0 -3 9.42v13.74a3.9 3.9 0 0 0 .92 2.91 4.69 4.69 0 0 0 3.1.83h2.51v3h-19.64v-3h2.59a4.64 4.64 0 0 0 2.94-.79 2.41 2.41 0 0 0 1-2v-24.05a4.69 4.69 0 0 0 -1.31-3.61 5.12 5.12 0 0 0 -3.7-1.24h-1.88z" fill="#0e1e63" transform="translate(-38.85 -36.84)"/><path d="m81.88 46.09a6.51 6.51 0 1 1 6.51 6.5 6.5 6.5 0 0 1 -6.51-6.5" fill="#0e1e63" transform="translate(-38.85 -36.84)"/><path d="m121.4 82.47a6.79 6.79 0 0 1 -5.29 2.65c-4.25 0-5.85-3.62-5.85-11.14 0-7.8 1.67-11.49 6.06-11.49 1.88 0 3.41 1 5.08 2.85zm13.09-43h-13.09v19.89c-3.2-3.21-6.54-4.74-10.51-4.74-8.36 0-14.41 7.52-14.41 19.5s5.78 19.21 14.13 19.21c3.76 0 7.31-1.53 10.79-4.52v3.69h13.06c0-1.2 0-53.06 0-53.06" fill="#00aae5" transform="translate(-38.85 -36.84)"/><path d="m97.94 18.27h13.02v37.39h-13.02z" fill="#00aae5"/><path d="m152.19 92.5h13.09v-24.73c2.21-1.74 6.57-3.41 13.23-1v-12.5c-5.57.35-9.88.92-13.23 5v-4.16h-13.09z" fill="#00aae5" transform="translate(-38.85 -36.84)"/><path d="m192.08 69.38c.14-4.8 2.09-7.31 5.71-7.31s5.92 2.65 5.92 7.31zm24.44 14.07-8.36-3.83c-1.87 3.55-4.59 5.22-8.35 5.22-5 0-8-3-8-8.15v-.21h25c.07-.76.07-1.46.07-2.15 0-12.54-7.45-20.06-19.08-20.06-11.91 0-19.78 7.8-19.78 20 0 11.83 7.73 19.42 19.78 19.42 8.77 0 15-3.48 18.73-10.23" fill="#00aae5" transform="translate(-38.85 -36.84)"/><path d="m244.87 78.57c-1.32 4.25-3.83 6.48-7.1 6.48-4.74 0-6.27-3.76-6.27-11.56 0-7.24 1.39-10.58 5.64-10.58 2.64 0 4 1.74 4.6 5.43l11.69-.91c-2.22-8.42-8.35-13.16-16.92-13.16-11 0-18.73 7.94-18.73 19.92s7.45 19.42 18.66 19.42c9 0 15.39-4.87 17.76-13.29z" fill="#00aae5" transform="translate(-38.85 -36.84)"/><path d="m274.4 92.43v-8.91a15.55 15.55 0 0 1 -3.28.42c-2.43 0-3.55-1-3.55-3.42v-17.19h6.83v-8.22h-6.83v-13.23h-12.74v41.78c0 6.61 4 9.75 12.32 9.75a26.31 26.31 0 0 0 7.25-1" fill="#00aae5" transform="translate(-38.85 -36.84)"/><path d="m136.78 46.09a6.5 6.5 0 1 1 6.5 6.5 6.5 6.5 0 0 1 -6.5-6.5" fill="#00aae5" transform="translate(-38.85 -36.84)"/><path d="m400.12 82.47a6.79 6.79 0 0 1 -5.29 2.65c-4.25 0-5.83-3.62-5.83-11.12 0-7.8 1.67-11.49 6.06-11.49 1.88 0 3.41 1 5.08 2.85zm13.09-43h-13.09v19.89c-3.2-3.21-6.54-4.74-10.51-4.74-8.36 0-14.41 7.52-14.41 19.5s5.8 19.21 14.13 19.21c3.76 0 7.31-1.53 10.79-4.52v3.69h13.06c0-1.2 0-53.06 0-53.06" fill="#00aae5" transform="translate(-38.85 -36.84)"/><path d="m376.66 18.27h13.02v37.39h-13.02z" fill="#00aae5"/><g transform="translate(-38.85 -36.84)"><path d="m430.91 92.5h13.09v-24.73c2.21-1.74 6.57-3.41 13.23-1v-12.5c-5.57.35-9.89.92-13.23 5v-4.16h-13.09z" fill="#00aae5"/><path d="m470.8 69.38c.14-4.8 2.09-7.31 5.71-7.31s5.92 2.65 5.92 7.31zm24.44 14.07-8.36-3.83c-1.87 3.55-4.59 5.22-8.35 5.22-5 0-8-3-8-8.15v-.21h25c.07-.76.07-1.46.07-2.15 0-12.54-7.45-20.06-19.08-20.06-11.91 0-19.78 7.8-19.78 20 0 11.83 7.73 19.42 19.78 19.42 8.77 0 15-3.48 18.73-10.23" fill="#00aae5"/><path d="m560.6 78.57c-1.33 4.25-3.83 6.48-7.11 6.48-4.73 0-6.26-3.76-6.26-11.56 0-7.24 1.39-10.58 5.64-10.58 2.64 0 4 1.74 4.59 5.43l11.7-.91c-2.23-8.42-8.36-13.16-16.92-13.16-11 0-18.73 7.94-18.73 19.92s7.49 19.42 18.66 19.42c9 0 15.39-4.87 17.76-13.29z" fill="#00aae5"/><path d="m435.5 39.46-11.14 10.54h-8.51l6.88-10.56z" fill="#00aae5"/><path d="m370.15 39.46-11.15 10.54h-8.5l6.88-10.56z" fill="#0e1e63"/><path d="m497.44 67a11.3 11.3 0 0 1 5.75-9.86c3.26-1.84 7.51-2.55 11.7-2.55 8.72 0 17.16 1.91 17.16 12.34v16.1c0 3.12 0 6.52 1.42 9.43h-12.13a14.54 14.54 0 0 1 -.71-3.48c-3.12 3.27-7.73 4.54-12.13 4.54-7 0-12.55-3.54-12.55-11.13 0-12 13.05-11.07 21.42-12.77 2.06-.42 3.19-1.13 3.19-3.4 0-2.77-3.33-3.83-5.81-3.83-3.34 0-5.47 1.49-6 4.61zm15.56 19.12c5.75 0 7.66-3.27 7.38-10.85-1.7 1.06-4.82 1.27-7.45 2s-5 1.77-5 4.68 2.42 4.17 5.07 4.17z" fill="#00aae5"/><path d="m570.75 39.46h12.06v21.27h.19c1.85-3.76 6.81-6.1 11.21-6.1 12.27 0 13.26 8.93 13.26 14.25v23.62h-12v-17.8c0-5 .56-10.14-6-10.14-4.54 0-6.53 3.83-6.53 7.87v20.07h-12.19z" fill="#00aae5"/><path d="m324.73 39.88h2.66v15.12h12v3.65h-12v23.87a6.86 6.86 0 0 0 1.46 4.74 4.77 4.77 0 0 0 3.73 1.65 5.62 5.62 0 0 0 4.6-2.5q1.9-2.5 2.22-8.25h2.66c-.16 5-1.28 8.61-3.37 11a10.3 10.3 0 0 1 -8.13 3.59 9.9 9.9 0 0 1 -7.2-2.52 8.8 8.8 0 0 1 -2.6-6.61v-24.94h-6.47v-2.77a10.46 10.46 0 0 0 6.71-3.69q3.46-4.41 3.73-12.34z" fill="#0e1e63"/><path d="m373.29 73.88h-26.62q.19 8.49 3.17 12a11 11 0 0 0 8.69 3.92q7.77 0 12.5-8.84l2.58 1.11q-5.81 11.27-16.74 11.26a16.61 16.61 0 0 1 -12.56-5.39q-5.1-5.4-5.1-13.81 0-9 5-14.61a16 16 0 0 1 12.36-5.58 15.75 15.75 0 0 1 9.32 2.78 16.73 16.73 0 0 1 5.91 8 27.1 27.1 0 0 1 1.49 9.16zm-26.62-2.82h16.11a2.7 2.7 0 0 0 2.22-1 5.31 5.31 0 0 0 .79-3.31 10.72 10.72 0 0 0 -2.72-7.42 8.3 8.3 0 0 0 -6.4-3.06 8.6 8.6 0 0 0 -7 3.69q-2.88 3.72-3 11.1z" fill="#0e1e63"/><path d="m475.7 108.41c.24 1.46 2 2 3.26 2s2.62-.41 2.62-1.79c0-1.15-1.17-1.47-2.11-1.64l-1.77-.32c-1.65-.32-3.17-1.08-3.17-3 0-2.23 2.07-3.17 4.05-3.17s3.74.73 4.27 2.73l-1.53.32a2.7 2.7 0 0 0 -2.76-1.71c-1 0-2.3.39-2.3 1.58s1 1.42 1.93 1.57l1.58.28a6 6 0 0 1 2.23.74 2.91 2.91 0 0 1 1.3 2.45c0 2.45-2.38 3.34-4.49 3.34s-4.19-.87-4.74-3.08z" fill="#0e1e63"/><path d="m493.9 108.64a4.73 4.73 0 0 1 -4.6 3.17c-3.28 0-5-2.6-5-5.62s1.77-5.68 5-5.68 4.81 2.81 4.73 5.81h-7.85a5.23 5.23 0 0 0 .44 2.45 3.12 3.12 0 0 0 2.77 1.64 3 3 0 0 0 2.89-2.09zm-1.66-3.55c0-1.79-1-3.3-2.9-3.3a3.21 3.21 0 0 0 -3 3.3z" fill="#0e1e63"/><path d="m497.77 98.88h-1.83v-1.88h1.83zm-.09 12.72h-1.68v-10.81h1.66z" fill="#0e1e63"/><path d="m501.68 100.79v2.53h.05c.51-1.47 1.42-2.83 3.17-2.83h.61v1.6h-.34a3 3 0 0 0 -2.78 1.7 4.27 4.27 0 0 0 -.54 2.32v5.45h-1.66v-10.77z" fill="#0e1e63"/><path d="m506.85 111.6h-.8v-14.6h1.65v5.58h.09a3.4 3.4 0 0 1 3.17-2.07 4.1 4.1 0 0 1 3.32 1.77 6.93 6.93 0 0 1 1 3.76c0 2.75-1.32 5.77-4.51 5.77a3.82 3.82 0 0 1 -3.32-2.06zm.85-4.53a4.57 4.57 0 0 0 .62 2.17 2.93 2.93 0 0 0 2.34 1.23c2.21 0 2.85-2.36 2.85-4.15s-.55-4.47-2.85-4.47c-1.7 0-2.91 1.73-3 3.3z" fill="#0e1e63"/><path d="m523.81 111.6v-6.3a6.8 6.8 0 0 0 -.23-2.15 2 2 0 0 0 -1.94-1.28 3 3 0 0 0 -2.19 1.15 4.33 4.33 0 0 0 -.83 3v5.56h-1.62v-14.58h1.66v5.79h.06a3.45 3.45 0 0 1 3.36-2.28 3.36 3.36 0 0 1 2.82 1.49 5.63 5.63 0 0 1 .57 3.28v6.3z" fill="#0e1e63"/><path d="m526.62 99.75-.43-.85 4.28-2.54.72 1.39zm3 11.85h-1.66v-10.81h1.66z" fill="#0e1e63"/><path d="m533 108.41c.24 1.46 2 2 3.26 2s2.62-.41 2.62-1.79c0-1.15-1.17-1.47-2.11-1.64l-1.77-.32c-1.65-.32-3.17-1.08-3.17-3 0-2.23 2.07-3.17 4-3.17s3.74.73 4.27 2.73l-1.53.32a2.7 2.7 0 0 0 -2.76-1.71c-1 0-2.3.39-2.3 1.58s1 1.42 1.93 1.57l1.58.28a6 6 0 0 1 2.25.74 2.91 2.91 0 0 1 1.3 2.45c0 2.45-2.38 3.34-4.49 3.34s-4.19-.87-4.74-3.08z" fill="#0e1e63"/><path d="m541.3 99.75-.43-.85 4.28-2.54.72 1.39zm3 11.85h-1.66v-10.81h1.66z" fill="#0e1e63"/><path d="m553.92 100.79v2.53c.51-1.47 1.42-2.83 3.17-2.83h.62v1.6h-.34a3 3 0 0 0 -2.79 1.7 4.26 4.26 0 0 0 -.53 2.32v5.45h-1.66v-10.77z" fill="#0e1e63"/><path d="m560.43 98.88h-1.83v-1.88h1.83zm-.09 12.72h-1.66v-10.81h1.66z" fill="#0e1e63"/><path d="m570 104.9v-.47c0-1.9-.83-2.62-2.74-2.62-1.36 0-2.66.43-3 1.92l-1.55-.26c.3-2.25 2.68-3 4.66-3a4.22 4.22 0 0 1 3.32 1.07c.89 1 .89 2.32.89 3.55v4.19a8.07 8.07 0 0 0 .23 2.28h-1.65l-.2-2a3.86 3.86 0 0 1 -3.78 2.23c-2 0-3.77-1.13-3.77-3.28a3.35 3.35 0 0 1 2-3 10.18 10.18 0 0 1 4.15-.63zm0 1.25h-1.38c-1.7 0-4.38.24-4.38 2.47 0 1.34 1.15 1.89 2.34 1.89a3.51 3.51 0 0 0 3.42-3.66z" fill="#0e1e63"/><path d="m573.79 111.6v-14.6h1.66v14.6z" fill="#0e1e63"/><path d="m583.07 111.68-1.6.13c-2.36 0-3.06-1.38-3.06-3.53v-6.28h-1.92v-1.3h1.92v-2.7l1.66-.17v2.85h2.4v1.32h-2.4v6.54c0 1.25.36 1.91 1.72 1.91l1.28-.11z" fill="#0e1e63"/><path d="m591.21 104.9v-.47c0-1.9-.83-2.62-2.74-2.62-1.36 0-2.66.43-3 1.92l-1.55-.26c.3-2.25 2.68-3 4.66-3a4.22 4.22 0 0 1 3.32 1.07c.89 1 .89 2.32.89 3.55v4.19a8.07 8.07 0 0 0 .23 2.28h-1.65l-.2-2a3.86 3.86 0 0 1 -3.78 2.23c-2 0-3.77-1.13-3.77-3.28a3.35 3.35 0 0 1 2-3 10.18 10.18 0 0 1 4.15-.63zm0 1.25h-1.38c-1.7 0-4.38.24-4.38 2.47 0 1.34 1.15 1.89 2.34 1.89a3.51 3.51 0 0 0 3.42-3.66z" fill="#0e1e63"/><path d="m596.7 98.88h-1.83v-1.88h1.83zm-.08 12.72h-1.62v-10.81h1.66z" fill="#0e1e63"/><path d="m600.07 108.41c.23 1.46 1.95 2 3.25 2 1.15 0 2.62-.41 2.62-1.79 0-1.15-1.17-1.47-2.11-1.64l-1.77-.32c-1.65-.32-3.17-1.08-3.17-3 0-2.23 2.07-3.17 4.05-3.17s3.74.73 4.27 2.73l-1.53.32a2.7 2.7 0 0 0 -2.76-1.71c-1 0-2.3.39-2.3 1.58s1 1.42 1.93 1.57l1.58.28a6 6 0 0 1 2.25.74 2.91 2.91 0 0 1 1.3 2.45c0 2.45-2.38 3.34-4.49 3.34s-4.19-.87-4.74-3.08z" fill="#0e1e63"/></g><path d="m254.68 0h1.19v79.82h-1.19z" fill="#00205c"/></svg>